Coordinates
version=1
nRows=9
nColumns=63
inDegrees=yes

Units are S.I. units (second, meters, Newtons, ...)
If the header above contains a line with 'inDegrees', this indicates whether rotational values are in degrees (yes) or radians (no).

endheader
time	pelvis_tilt	pelvis_list	pelvis_rotation	pelvis_tx	pelvis_ty	pelvis_tz	hip_flexion_r	hip_adduction_r	hip_rotation_r	knee_angle_r	knee_angle_r_beta	ankle_angle_r	subtalar_angle_r	mtp_angle_r	hip_flexion_l	hip_adduction_l	hip_rotation_l	knee_angle_l	knee_angle_l_beta	ankle_angle_l	subtalar_angle_l	mtp_angle_l	L5_S1_Flex_Ext	L5_S1_Lat_Bending	L5_S1_axial_rotation	L4_L5_Flex_Ext	L4_L5_Lat_Bending	L4_L5_axial_rotation	L3_L4_Flex_Ext	L3_L4_Lat_Bending	L3_L4_axial_rotation	L2_L3_Flex_Ext	L2_L3_Lat_Bending	L2_L3_axial_rotation	L1_L2_Flex_Ext	L1_L2_Lat_Bending	L1_L2_axial_rotation	L1_T12_Flex_Ext	L1_T12_Lat_Bending	L1_T12_axial_rotation	Abs_r3	Abs_r2	Abs_r1	Abs_t1	Abs_t2	neck_flexion	neck_bending	neck_rotation	arm_flex_r	arm_add_r	arm_rot_r	elbow_flex_r	pro_sup_r	wrist_flex_r	wrist_dev_r	arm_flex_l	arm_add_l	arm_rot_l	elbow_flex_l	pro_sup_l	wrist_flex_l	wrist_dev_l
      2.25000000	      4.88166810	     -1.86920493	     95.93064539	      0.12012010	      0.99666956	      0.14897344	      8.01695799	      1.93523326	     -9.78924425	      9.30451575	      0.16239444	     15.98330516	      1.60800772	      0.00000000	     10.16596213	     -4.01163852	     -9.61011396	     15.91004452	      0.27768266	     18.80683882	      8.51358349	      0.00000000	      0.30650381	      0.51472636	     -0.61937697	      0.56920823	      0.68458606	     -0.65808804	      0.50355512	      1.25150568	     -0.65808804	      0.35030321	      1.25150568	     -0.54195485	      0.28461944	      1.04963000	     -0.50324379	      0.17513628	      0.79731113	     -0.46453273	      2.18932610	      5.82268755	     -3.44478892	      0.00000000	      0.00000000	      4.28527537	     -5.29395035	      7.63450443	     34.17089080	      1.64591555	     72.60634514	     82.01924596	     76.34593272	     25.06729833	      6.32936319	     26.93928750	      2.25711650	     61.56446264	     97.56100105	     87.69170439	     12.54921462	     14.21376420
      2.26666667	      4.82082347	     -1.77832518	     95.79092478	      0.11942934	      0.99793333	      0.14783838	      7.68923497	      1.83987825	    -10.11200756	      9.03292603	      0.15765430	     15.64527175	      2.33389020	      0.00000000	      9.92215995	     -3.88823083	     -9.62950173	     15.74627946	      0.27482442	     17.88556220	      7.98691860	      0.00000000	      0.32644465	      0.50968028	     -0.67085091	      0.60624037	      0.67787477	     -0.71277910	      0.53631592	      1.23923662	     -0.71277910	      0.37309360	      1.23923662	     -0.58699455	      0.30313651	      1.03934002	     -0.54506637	      0.18653048	      0.78949475	     -0.50313819	      2.33176152	      5.76560521	     -3.73107153	      0.00000000	      0.00000000	      2.81905689	     -5.41893892	      7.98224686	     36.70107233	      3.34808735	     75.00449387	     82.87545018	     78.04365030	     15.35010764	      7.54794491	     29.76268581	      2.87510276	     63.94880223	     98.62747719	     84.08474489	     11.29846845	     14.59209025
      2.28333333	      4.66095290	     -1.83421260	     95.67208430	      0.11901757	      0.99899514	      0.14731875	      7.62737848	      1.54795249	    -11.27514425	      8.98048895	      0.15673910	     15.45551013	      3.99845587	      0.00000000	      9.89196565	     -3.56476672	     -8.92605909	     15.58563852	      0.27202071	     16.78084942	      6.43514536	      0.00000000	      0.36008647	      0.45773569	     -0.67946516	      0.66871658	      0.60878846	     -0.72193173	      0.59158606	      1.11293855	     -0.72193173	      0.41154283	      1.11293855	     -0.59453201	      0.33437630	      0.93341461	     -0.55206544	      0.20575341	      0.70903258	     -0.50959887	      2.57206165	      5.17799763	     -3.77898135	      0.00000000	      0.00000000	      1.12662754	     -4.33375114	      6.46718733	     39.32293954	      4.41245083	     77.90727517	     84.69257172	     79.54151265	      7.28314067	      8.24726561	     32.87671254	      3.35144009	     66.34643612	     99.72500635	     73.80486816	      8.38688658	     17.14081770
      2.30000000	      4.34203551	     -1.68625555	     95.60475265	      0.11896084	      1.00040667	      0.14680982	      7.19952817	      1.23106687	    -11.51663647	      8.61136247	      0.15029663	     15.00865370	      4.39881170	      0.00000000	      9.63369091	     -3.20054202	     -8.89397187	     15.46163103	      0.26985637	     15.87341247	      5.92361383	      0.00000000	      0.34705921	      0.37318555	     -0.65402915	      0.64452365	      0.49633678	     -0.69490597	      0.57018357	      0.90736334	     -0.69490597	      0.39665397	      0.90736334	     -0.57227550	      0.32227918	      0.76099997	     -0.53139868	      0.19830963	      0.57806441	     -0.49052186	      2.47900921	      4.22154956	     -3.63751390	      0.00000000	      0.00000000	     -0.48743070	     -2.87258024	      4.67363917	     41.53371792	      5.26549351	     79.56338260	     87.08074654	     78.39845438	      2.76806042	     11.10262853	     35.39280620	      3.85096924	     67.97008388	    101.01836350	     68.09672902	      5.79049308	     18.43593893
      2.31666667	      3.88466981	     -1.78819627	     95.44316883	      0.11963187	      1.00139933	      0.14672304	      7.20914507	      0.75427535	    -11.62383360	      8.53709932	      0.14900049	     14.61358143	      4.63274386	      0.00000000	      9.65308964	     -2.70100737	     -8.84904890	     15.34589505	      0.26783640	     14.99122731	      5.25634719	      0.00000000	      0.36808750	      0.23176500	     -0.48170649	      0.68357529	      0.30824745	     -0.51181315	      0.60473095	      0.56351342	     -0.51181315	      0.42068720	      0.56351342	     -0.42149318	      0.34180605	      0.47261519	     -0.39138652	      0.21032520	      0.35900398	     -0.36127987	      2.62921218	      2.62177202	     -2.67910698	      0.00000000	      0.00000000	     -1.94654692	     -0.13821473	      0.68047229	     42.94929255	      5.60270160	     79.11484713	     88.87505529	     72.23262310	      3.91600969	     12.03124684	     37.74230732	      4.68018792	     70.21089232	    102.51696454	     60.90942733	      1.01695415	     20.72582066
      2.33333333	      3.50501635	     -1.69923917	     95.40446025	      0.11989194	      1.00270640	      0.14715423	      7.02214433	      0.39553990	    -11.43497476	      8.35123058	      0.14575647	     14.07493706	      4.23949502	      0.00000000	      9.54219742	     -2.32370082	     -9.09495918	     15.27684452	      0.26663124	     14.32168077	      5.16092494	      0.00000000	      0.35247380	      0.12303766	     -0.29839894	      0.65457909	      0.16364009	     -0.31704887	      0.57907920	      0.29915377	     -0.31704887	      0.40284230	      0.29915377	     -0.26109907	      0.32730717	      0.25089840	     -0.24244914	      0.20140353	      0.19058534	     -0.22379921	      2.51768510	      1.39182663	     -1.65960539	      0.00000000	      0.00000000	     -3.23094836	      1.93505463	     -1.96880562	     43.94140745	      5.61573503	     77.98057227	     90.66209979	     67.30890484	      4.63043910	     13.47328476	     39.45083251	      5.52259077	     71.64955428	    103.82813149	     56.12901226	     -1.33613152	     20.97904077
      2.35000000	      3.31346844	     -1.62330501	     94.93347894	      0.11982827	      1.00381886	      0.14760983	      6.95213360	      0.20230660	    -10.95670286	      8.19285237	      0.14299225	     13.66119994	      4.26996824	      0.00000000	      9.36173469	     -2.12871514	     -9.69798109	     15.12823388	      0.26403749	     13.86024525	      4.91707658	      0.00000000	      0.34474514	      0.08376040	     -0.02760811	      0.64022620	      0.11140133	     -0.02933361	      0.56638179	      0.20365504	     -0.02933361	      0.39400922	      0.20365504	     -0.02415709	      0.32013034	      0.17080421	     -0.02243159	      0.19698737	      0.12974486	     -0.02070608	      2.46248006	      0.94751440	     -0.15354800	      0.00000000	      0.00000000	     -4.18394806	      2.43795579	     -2.92011538	     44.35976726	      5.41108576	     76.47541856	     91.98665372	     62.82399960	      7.05796185	     15.02908910	     40.35387426	      6.23424028	     72.04747991	    105.74074308	     56.73814711	     -2.17009243	     20.57011959
      2.36666667	      3.33659119	     -1.56716139	     95.10437049	      0.11845631	      1.00448733	      0.14896257	      6.97868047	      0.11783171	    -11.00273118	      8.12285040	      0.14177048	     13.49335192	      4.24753836	      0.00000000	      9.45105326	     -2.06837057	     -9.75951414	     15.17525961	      0.26485824	     13.63825890	      4.90766238	      0.00000000	      0.33151785	      0.08697847	      0.04989344	      0.61566180	      0.11568137	      0.05301178	      0.54465067	      0.21147946	      0.05301178	      0.37889175	      0.21147946	      0.04365676	      0.30784747	      0.17736650	      0.04053842	      0.18942930	      0.13472966	      0.03742008	      2.36799884	      0.98391789	      0.27749233	      0.00000000	      0.00000000	     -4.72974391	      2.59275889	     -2.93298713	     44.74168927	      5.22375831	     75.67613916	     93.30048655	     62.46355481	      7.31411127	     14.81090883	     40.73743586	      6.55869114	     71.50262534	    108.14120367	     56.71397259	     -1.78473688	     20.14770722
      2.38333333	      3.00648895	     -1.44054432	     94.06600253	      0.11923371	      1.00548661	      0.14968630	      6.97557041	     -0.05221501	     -8.63309814	      7.91130531	      0.13807833	     13.19557498	      2.58482358	      0.00000000	      9.21589652	     -1.85606304	    -11.12060687	     15.21297067	      0.26551643	     13.16193094	      4.65912016	      0.00000000	      0.31881935	      0.03668421	      0.47799639	      0.59207942	      0.04879000	      0.50787117	      0.52378831	      0.08919399	      0.50787117	      0.36437864	      0.08919399	      0.41824684	      0.29605565	      0.07480644	      0.38837207	      0.18217338	      0.05682384	      0.35849730	      2.27729475	      0.41497912	      2.65847254	      0.00000000	      0.00000000	     -5.69530632	      3.63792288	     -3.58662607	     43.74783061	      4.74640832	     73.63221805	     94.67883288	     50.01578986	      8.95494521	     19.80463039	     41.50120036	      7.09550027	     71.18993298	    109.44674938	     63.82963482	      3.45913077	     15.52815268
